<?xml version="1.0" encoding="iso-8859-1"?>
<!-- Generator: Adobe Illustrator 17.1.0, SVG Export Plug-In . SVG Version: 6.00 Build 0)  -->
<!DOCTYPE svg PUBLIC "-//W3C//DTD SVG 1.1//EN" "http://www.w3.org/Graphics/SVG/1.1/DTD/svg11.dtd">
<svg version="1.1" id="Capa_1" xmlns="http://www.w3.org/2000/svg" xmlns:xlink="http://www.w3.org/1999/xlink" x="0px" y="0px"
	 viewBox="0 0 362 362" style="enable-background:new 0 0 362 362;" xml:space="preserve">
<g>
	<path d="M89.908,201.831l32.096-34.045c4.367-4.631,4.88-12.037,1.193-17.228l-3.374-4.75c-2.253-3.171-5.701-4.99-9.461-4.99
		c-3.174,0-6.174,1.309-8.443,3.681l-46.462,48.523c-4.653,4.856-4.653,12.762-0.001,17.621l46.462,48.518
		c2.272,2.374,5.271,3.682,8.444,3.682h0c3.759,0,7.208-1.819,9.46-4.99l3.376-4.75c3.687-5.19,3.173-12.597-1.194-17.227
		L89.908,201.831z"/>
	<path d="M203.979,137.5h-6.236c-5.997,0-11.778,4.19-13.748,9.854L147.87,251.259c-1.24,3.564-0.773,7.535,1.281,10.424
		c2.054,2.89,5.397,4.817,9.172,4.817h6.232c5.996,0,11.778-4.36,13.748-10.023l36.126-103.992
		c1.239-3.566,0.772-7.408-1.281-10.298C211.095,139.298,207.752,137.5,203.979,137.5z"/>
	<path d="M260.385,144.5c-2.273-2.374-5.272-3.682-8.444-3.682c-3.76,0-7.208,1.819-9.461,4.991l-3.373,4.748
		c-3.688,5.191-3.175,12.598,1.192,17.228l32.099,34.046L240.3,235.874c-4.367,4.631-4.881,12.037-1.194,17.227l3.374,4.751
		c2.253,3.171,5.701,4.99,9.46,4.99h0.001c3.172,0,6.171-1.308,8.443-3.681l46.463-48.52c4.649-4.856,4.65-12.76,0-17.62
		L260.385,144.5z"/>
	<path d="M332,16.5H30c-16.542,0-30,13.458-30,30v269c0,16.542,13.458,30,30,30h302c16.542,0,30-13.458,30-30v-269
		C362,29.958,348.542,16.5,332,16.5z M117.837,45.887c5.675,0,10.276,4.601,10.276,10.276s-4.601,10.276-10.276,10.276
		c-5.675,0-10.276-4.601-10.276-10.276S112.162,45.887,117.837,45.887z M81.371,45.887c5.675,0,10.276,4.601,10.276,10.276
		s-4.601,10.276-10.276,10.276c-5.675,0-10.276-4.601-10.276-10.276S75.695,45.887,81.371,45.887z M44.904,45.887
		c5.675,0,10.276,4.601,10.276,10.276s-4.601,10.276-10.276,10.276s-10.276-4.601-10.276-10.276S39.229,45.887,44.904,45.887z
		 M332,315.5H30v-228h302.003l0.016,228C332.019,315.5,332.013,315.5,332,315.5z"/>
</g>
<g>
</g>
<g>
</g>
<g>
</g>
<g>
</g>
<g>
</g>
<g>
</g>
<g>
</g>
<g>
</g>
<g>
</g>
<g>
</g>
<g>
</g>
<g>
</g>
<g>
</g>
<g>
</g>
<g>
</g>
</svg>
