<?xml version="1.0" encoding="iso-8859-1"?>
<!-- Generator: Adobe Illustrator 19.0.0, SVG Export Plug-In . SVG Version: 6.00 Build 0)  -->
<svg version="1.1" id="Capa_1" xmlns="http://www.w3.org/2000/svg" xmlns:xlink="http://www.w3.org/1999/xlink" x="0px" y="0px"
	 viewBox="0 0 512 512" style="enable-background:new 0 0 512 512;" xml:space="preserve">
<g>
	<g>
		<path d="M214,181v48h84v-48C288.949,181,225.465,181,214,181z"/>
	</g>
</g>
<g>
	<g>
		<path d="M446,0H66c-8.284,0-15,6.716-15,15v482c0,8.284,6.716,15,15,15h380c8.284,0,15-6.716,15-15V15C461,6.716,454.284,0,446,0z
			 M175,429.429c0,4.734-3.838,8.571-8.571,8.571h-22.857c-4.734,0-8.571-3.838-8.571-8.571v-22.857
			c0-4.734,3.838-8.571,8.571-8.571h22.857c4.734,0,8.571,3.838,8.571,8.571V429.429z M175,349.429c0,4.734-3.838,8.571-8.571,8.571
			h-22.857c-4.734,0-8.571-3.838-8.571-8.571v-22.857c0-4.734,3.838-8.571,8.571-8.571h22.857c4.734,0,8.571,3.838,8.571,8.571
			V349.429z M184,244v-78c0-8.284,6.716-15,15-15h2v-23c0-30.327,24.673-55,55-55c30.327,0,55,24.673,55,55v23h2
			c8.284,0,15,6.716,15,15v78c0,8.284-6.716,15-15,15H199C190.716,259,184,252.284,184,244z M377,433H235c-8.284,0-15-6.716-15-15
			s6.716-15,15-15h142c8.284,0,15,6.716,15,15S385.284,433,377,433z M377,353H235c-8.284,0-15-6.716-15-15s6.716-15,15-15h142
			c8.284,0,15,6.716,15,15S385.284,353,377,353z"/>
	</g>
</g>
<g>
	<g>
		<path d="M256,103c-13.785,0-25,11.215-25,25v23h50v-23C281,114.215,269.785,103,256,103z"/>
	</g>
</g>
<g>
</g>
<g>
</g>
<g>
</g>
<g>
</g>
<g>
</g>
<g>
</g>
<g>
</g>
<g>
</g>
<g>
</g>
<g>
</g>
<g>
</g>
<g>
</g>
<g>
</g>
<g>
</g>
<g>
</g>
</svg>
