<svg width="219" height="89" viewBox="0 0 219 89" fill="none" xmlns="http://www.w3.org/2000/svg">
<path d="M24.5343 59.825C28.2743 56.4817 31.4759 52.3733 34.1393 47.5C36.8026 42.57 38.1343 37.9233 38.1343 33.56C38.1343 29.1967 37.2843 25.655 35.5843 22.935C33.9409 20.215 31.9859 18.855 29.7193 18.855C27.4526 18.855 24.6193 20.6117 21.2193 24.125C17.8193 27.6383 14.7593 32.2567 12.0393 37.98C9.31928 43.6467 7.95928 49.0867 7.95928 54.3C7.95928 57.4167 8.63928 59.9667 9.99928 61.95C11.3593 63.8767 12.9459 64.84 14.7593 64.84C17.5926 64.84 20.8509 63.1683 24.5343 59.825ZM14.2493 71.555C10.5093 71.555 7.22261 69.7133 4.38928 66.03C1.61261 62.3467 0.224277 58.6067 0.224277 54.81C0.224277 49.6533 1.15928 44.4117 3.02928 39.085C4.95594 33.7583 7.33594 29.1117 10.1693 25.145C13.0593 21.1783 16.2326 17.9483 19.6893 15.455C23.1459 12.905 26.3476 11.63 29.2943 11.63C34.0543 11.63 38.0209 13.8117 41.1943 18.175C44.3676 22.4817 45.9543 27.355 45.9543 32.795C45.9543 38.235 44.4526 43.9583 41.4493 49.965C38.4459 55.915 34.4226 61.015 29.3793 65.265C24.3926 69.4583 19.3493 71.555 14.2493 71.555ZM46.9132 62.02C47.9332 60.76 48.9532 60.13 49.9732 60.13C50.9932 60.13 52.2232 61.6 53.6632 64.54C55.1032 67.42 55.8232 69.58 55.8232 71.02C55.8232 71.44 55.5232 71.92 54.9232 72.46C54.3232 73 53.7532 73.27 53.2132 73.27C51.7132 73.27 50.0332 72.34 48.1732 70.48C46.3132 68.56 45.3832 67 45.3832 65.8C45.3832 64.54 45.8932 63.28 46.9132 62.02ZM58.5232 0.0999944C59.6632 0.0999944 61.2232 0.819996 63.2032 2.26C65.1832 3.7 66.1732 4.84 66.1732 5.68C66.1732 10.78 64.8532 19.75 62.2132 32.59C59.6332 45.43 57.5632 51.85 56.0032 51.85C55.0432 51.85 54.1432 51.37 53.3032 50.41C52.4632 49.39 52.0432 48.34 52.0432 47.26C51.9832 46.9 52.3432 44.74 53.1232 40.78C53.9632 36.82 54.8332 31.27 55.7332 24.13C56.6332 16.93 57.0832 9.7 57.0832 2.44C57.0832 0.879995 57.5632 0.0999944 58.5232 0.0999944ZM62.9466 88.47C62.4266 88.47 61.95 88.145 61.5166 87.495C61.04 86.8883 60.8016 86.3033 60.8016 85.74C60.8016 85.1767 61.5383 81.97 63.0116 76.12C67.3883 58.6567 69.5766 47.3467 69.5766 42.19C69.5766 41.4533 69.6416 40.955 69.7716 40.695C69.9016 40.3917 70.2266 40.24 70.7466 40.24C71.2666 40.24 71.895 40.7383 72.6316 41.735C73.4116 42.6883 73.8016 43.62 73.8016 44.53C73.8016 45.44 73.4333 47.455 72.6966 50.575C74.7333 47.195 76.9 44.595 79.1966 42.775C81.4933 40.955 83.6816 40.045 85.7616 40.045C87.8416 40.045 89.4233 41.1067 90.5066 43.23C91.6333 45.3533 92.1966 47.9533 92.1966 51.03C92.1966 54.0633 90.9833 57.27 88.5566 60.65C86.13 64.03 83.27 66.7383 79.9766 68.775C76.6833 70.8117 73.715 71.83 71.0716 71.83C69.685 71.83 68.58 71.5917 67.7566 71.115C67.28 73.0217 66.89 74.7117 66.5866 76.185C66.2833 77.7017 65.98 79.0667 65.6766 80.28C65.4166 81.5367 65.1133 82.8367 64.7666 84.18C64.03 87.04 63.4233 88.47 62.9466 88.47ZM70.4866 68.06C72.7833 68.06 75.275 67.3017 77.9616 65.785C80.6483 64.2683 83.01 62.1233 85.0466 59.35C87.0833 56.5767 88.1016 53.6517 88.1016 50.575C88.1016 46.1983 87.1483 44.01 85.2416 44.01C83.3783 44.01 80.8433 45.7433 77.6366 49.21C74.43 52.6333 71.96 56.5117 70.2266 60.845L68.4716 67.865C69.0783 67.995 69.75 68.06 70.4866 68.06ZM106.84 65.2C108.834 63.12 110.329 60.78 111.325 58.18C112.365 55.58 112.885 53.2833 112.885 51.29C112.885 49.2967 112.539 47.6067 111.845 46.22C111.195 44.79 110.307 43.815 109.18 43.295C105.584 43.9883 102.637 46.3067 100.34 50.25C98.0437 54.1933 96.8954 58.31 96.8954 62.6C96.8954 65.85 98.0004 67.865 100.21 68.645C102.637 68.385 104.847 67.2367 106.84 65.2ZM95.1404 51.875C96.5704 48.5817 98.5204 45.8517 100.99 43.685C103.504 41.475 106.017 40.37 108.53 40.37C111.087 40.37 113.08 41.4533 114.51 43.62C115.984 45.7433 116.72 48.235 116.72 51.095C116.72 56.2083 115.052 60.9533 111.715 65.33C108.379 69.7067 104.522 71.895 100.145 71.895C97.9787 71.895 96.2454 70.92 94.9454 68.97C93.6454 67.02 92.9954 64.5067 92.9954 61.43C92.9954 58.31 93.7104 55.125 95.1404 51.875ZM128.625 71.895C126.242 71.895 124.053 71.0283 122.06 69.295C120.11 67.5183 119.135 65.2433 119.135 62.47C119.135 59.6533 120.023 56.5117 121.8 53.045C123.577 49.535 125.852 46.545 128.625 44.075C131.442 41.605 134.128 40.37 136.685 40.37C138.592 40.37 140.13 41.0633 141.3 42.45C142.513 43.7933 143.12 44.8983 143.12 45.765C143.12 46.6317 142.86 47.065 142.34 47.065C141.82 47.065 140.997 46.61 139.87 45.7C138.787 44.7467 137.812 44.27 136.945 44.27C135.212 44.27 133.24 45.3317 131.03 47.455C128.82 49.5783 126.935 52.1133 125.375 55.06C123.858 58.0067 123.1 60.4117 123.1 62.275C123.1 64.095 123.598 65.525 124.595 66.565C125.635 67.5617 127.065 68.06 128.885 68.06C130.748 68.06 132.482 67.8 134.085 67.28C135.688 66.76 136.945 66.2617 137.855 65.785C138.808 65.265 139.502 65.005 139.935 65.005C140.542 65.005 140.845 65.3517 140.845 66.045C140.845 66.955 139.415 68.1683 136.555 69.685C133.695 71.1583 131.052 71.895 128.625 71.895ZM151.302 24.575C151.302 23.6217 151.389 22.9933 151.562 22.69C151.735 22.3433 152.104 22.17 152.667 22.17C153.23 22.17 153.815 22.6467 154.422 23.6C155.029 24.5533 155.332 25.55 155.332 26.59C155.332 30.0567 154.704 35.365 153.447 42.515C152.234 49.6217 150.327 56.8367 147.727 64.16C152.884 55.1467 156.87 48.9283 159.687 45.505C162.504 42.0817 164.93 40.37 166.967 40.37C168.007 40.37 169.199 41.2367 170.542 42.97C171.929 44.66 172.622 46.545 172.622 48.625C172.622 50.705 171.929 53.9333 170.542 58.31C169.155 62.6433 167.92 66.0017 166.837 68.385C165.797 70.725 164.8 71.895 163.847 71.895C163.154 71.895 162.807 71.5267 162.807 70.79C162.807 70.01 163.002 69.0133 163.392 67.8C163.782 66.5433 164.345 64.8967 165.082 62.86C167.552 56.1433 168.787 51.355 168.787 48.495C168.787 47.5417 168.484 46.74 167.877 46.09C167.314 45.3967 166.772 45.05 166.252 45.05C164.995 45.05 163.565 46.025 161.962 47.975C160.402 49.925 158.755 52.2217 157.022 54.865C155.289 57.465 154.335 58.8733 154.162 59.09C154.032 59.3067 153.859 59.5883 153.642 59.935C153.425 60.2817 153.035 60.8883 152.472 61.755C151.909 62.5783 150.999 64.0083 149.742 66.045C147.315 69.945 145.972 71.895 145.712 71.895C145.279 71.895 144.78 71.5917 144.217 70.985C143.654 70.335 143.372 69.75 143.372 69.23C143.372 68.6667 143.632 67.41 144.152 65.46C146.275 58.0067 147.749 52.1567 148.572 47.91C150.392 38.68 151.302 30.9017 151.302 24.575ZM185.847 45.375C184.894 49.1883 183.724 53.3267 182.337 57.79C180.994 62.21 180.322 65.005 180.322 66.175C180.322 67.345 180.907 67.93 182.077 67.93C184.157 67.93 186.28 67.4967 188.447 66.63C190.614 65.72 191.784 65.265 191.957 65.265C192.564 65.265 192.867 65.525 192.867 66.045C192.867 67.085 191.654 68.32 189.227 69.75C186.844 71.18 184.655 71.895 182.662 71.895C180.712 71.895 179.174 71.44 178.047 70.53C176.92 69.5767 176.357 68.4933 176.357 67.28C176.357 66.0667 176.639 64.42 177.202 62.34C177.765 60.26 178.545 57.595 179.542 54.345C180.582 51.0517 181.384 48.3217 181.947 46.155C179.564 46.5883 178.112 46.805 177.592 46.805C177.115 46.805 176.617 46.5667 176.097 46.09C175.577 45.6133 175.317 45.18 175.317 44.79C175.317 44.01 177.852 43.1217 182.922 42.125C183.659 38.5283 184.027 35.495 184.027 33.025C184.027 31.725 184.352 31.075 185.002 31.075C185.522 31.075 186.129 31.4433 186.822 32.18C187.559 32.8733 187.927 33.675 187.927 34.585C187.927 35.4517 187.537 37.77 186.757 41.54C189.79 41.1067 191.935 40.89 193.192 40.89C195.445 40.89 196.572 41.345 196.572 42.255C196.572 42.775 196.052 43.1867 195.012 43.49L185.847 45.375ZM211.168 40.37C213.422 40.37 215.155 41.3017 216.368 43.165C217.625 45.0283 218.253 46.7183 218.253 48.235C218.253 49.7083 217.777 51.095 216.823 52.395C217.213 52.8283 217.408 53.3917 217.408 54.085C217.408 56.8583 217.17 59.48 216.693 61.95C216.26 64.42 215.978 66.3917 215.848 67.865C215.718 69.3383 215.567 70.3783 215.393 70.985C215.263 71.5917 215.003 71.895 214.613 71.895C213.877 71.895 213.4 71.2017 213.183 69.815C212.967 68.385 212.858 66.1967 212.858 63.25C211.515 65.6333 209.803 67.67 207.723 69.36C205.687 71.05 203.672 71.895 201.678 71.895C199.728 71.895 197.843 71.1367 196.023 69.62C194.203 68.1033 193.293 66.435 193.293 64.615C193.293 61.8417 194.247 58.5483 196.153 54.735C198.103 50.8783 200.53 47.52 203.433 44.66C206.337 41.8 208.915 40.37 211.168 40.37ZM214.873 51.615C214.83 51.3117 214.808 50.5967 214.808 49.47C214.808 48.3 214.548 47.13 214.028 45.96C213.552 44.79 212.815 44.205 211.818 44.205C210.172 44.205 208.178 45.4617 205.838 47.975C203.542 50.445 201.548 53.3267 199.858 56.62C198.168 59.87 197.323 62.5567 197.323 64.68C197.323 65.6333 197.757 66.435 198.623 67.085C199.533 67.735 200.487 68.06 201.483 68.06C203.737 68.06 206.033 66.6083 208.373 63.705C210.713 60.8017 212.49 57.2267 213.703 52.98C213.833 52.2433 214.223 51.7883 214.873 51.615Z" fill="#FF7400"/>
</svg>
